<svg xmlns="http://www.w3.org/2000/svg" viewBox="0 0 128 128" role="img" aria-label="xPoster Markdown publisher app icon">
  <defs>
    <linearGradient id="xposter-paper" x1="36" y1="20" x2="92" y2="114" gradientUnits="userSpaceOnUse">
      <stop offset="0" stop-color="#FFFDF6"/>
      <stop offset="1" stop-color="#E9E2D4"/>
    </linearGradient>
    <linearGradient id="xposter-signal" x1="65" y1="75" x2="100" y2="106" gradientUnits="userSpaceOnUse">
      <stop offset="0" stop-color="#1D9BF0"/>
      <stop offset="1" stop-color="#00BA7C"/>
    </linearGradient>
    <filter id="xposter-shadow" x="14" y="13" width="104" height="112" color-interpolation-filters="sRGB" filterUnits="userSpaceOnUse">
      <feDropShadow dx="0" dy="8" stdDeviation="5" flood-color="#0F1419" flood-opacity=".22"/>
    </filter>
  </defs>

  <rect x="0" y="0" width="128" height="128" rx="28" fill="#111820"/>
  <rect x="8" y="8" width="112" height="112" rx="23" fill="none" stroke="#FFFFFF" stroke-opacity=".12" stroke-width="2"/>

  <g filter="url(#xposter-shadow)">
    <path d="M34 18h45l23 23v71a7 7 0 0 1-7 7H34a7 7 0 0 1-7-7V25a7 7 0 0 1 7-7Z" fill="url(#xposter-paper)"/>
    <path d="M79 18v17a6 6 0 0 0 6 6h17Z" fill="#D8CEBC"/>
    <path d="M79 18v17a6 6 0 0 0 6 6h17" fill="none" stroke="#BEB4A4" stroke-width="2" stroke-linejoin="round"/>
    <path d="M43 45h34M43 58h38M43 71h26" fill="none" stroke="#4D5A63" stroke-linecap="round" stroke-width="6"/>
    <path d="M43 89h17" fill="none" stroke="#8B7F6D" stroke-linecap="round" stroke-width="5"/>
  </g>

  <rect x="64" y="76" width="39" height="29" rx="14.5" fill="url(#xposter-signal)"/>
  <path d="M75 90h17M86 83l8 7-8 7" fill="none" stroke="#F7F9F9" stroke-linecap="round" stroke-linejoin="round" stroke-width="5"/>
</svg>
